<svg width="32" height="32" viewBox="0 0 32 32" fill="none" xmlns="http://www.w3.org/2000/svg">
<path d="M10.2988 22.684L16.7915 22.664L30.9627 9.94403C31.5189 9.44003 31.8249 8.7707 31.8249 8.0587C31.8249 7.3467 31.5189 6.67737 30.9627 6.17337L28.6293 4.0587C27.517 3.0507 25.5764 3.05603 24.473 4.0547L10.2988 16.7774V22.684ZM26.5489 5.94403L28.8868 8.0547L26.5372 10.164L24.2037 8.0507L26.5489 5.94403ZM13.2414 17.8894L22.1131 9.92537L24.4465 12.04L15.5763 20.0014L13.2414 20.008V17.8894Z" fill="#47279B"/>
<path d="M5.94253 28H26.5402C28.163 28 29.4828 26.804 29.4828 25.3333V13.776L26.5402 16.4427V25.3333H10.5888C10.5505 25.3333 10.5108 25.3467 10.4726 25.3467C10.424 25.3467 10.3754 25.3347 10.3254 25.3333H5.94253V6.66667H16.0163L18.9588 4H5.94253C4.31972 4 3 5.196 3 6.66667V25.3333C3 26.804 4.31972 28 5.94253 28Z" fill="#47279B"/>
</svg>
