<svg width="28" height="28" viewBox="0 0 28 28" fill="none" xmlns="http://www.w3.org/2000/svg">
<g clip-path="url(#clip0_98_2657)">
<path d="M21.4375 0H6.5625C2.93813 0 0 2.93813 0 6.5625V21.4375C0 25.0619 2.93813 28 6.5625 28H21.4375C25.0619 28 28 25.0619 28 21.4375V6.5625C28 2.93813 25.0619 0 21.4375 0Z" fill="url(#paint0_radial_98_2657)"/>
<path d="M21.4375 0H6.5625C2.93813 0 0 2.93813 0 6.5625V21.4375C0 25.0619 2.93813 28 6.5625 28H21.4375C25.0619 28 28 25.0619 28 21.4375V6.5625C28 2.93813 25.0619 0 21.4375 0Z" fill="url(#paint1_radial_98_2657)"/>
<path d="M13.5635 2.625C10.5931 2.625 10.2202 2.63802 9.05363 2.69106C7.88922 2.74444 7.09439 2.92873 6.39898 3.19922C5.67952 3.47856 5.06931 3.8523 4.46141 4.46042C3.85295 5.06844 3.47922 5.67864 3.199 6.39778C2.92775 7.09341 2.74323 7.88856 2.69084 9.05242C2.63867 10.2191 2.625 10.5921 2.625 13.5626C2.625 16.5331 2.63813 16.9048 2.69106 18.0714C2.74466 19.2358 2.92895 20.0306 3.19922 20.726C3.47878 21.4455 3.85252 22.0557 4.46064 22.6636C5.06844 23.272 5.67864 23.6467 6.39756 23.926C7.09352 24.1965 7.88845 24.3808 9.05264 24.4342C10.2193 24.4872 10.5919 24.5002 13.5622 24.5002C16.5329 24.5002 16.9046 24.4872 18.0712 24.4342C19.2356 24.3808 20.0313 24.1965 20.7272 23.926C21.4464 23.6467 22.0557 23.272 22.6634 22.6636C23.2718 22.0557 23.6455 21.4455 23.9258 20.7263C24.1946 20.0306 24.3792 19.2356 24.4339 18.0716C24.4863 16.905 24.5 16.5331 24.5 13.5626C24.5 10.5921 24.4863 10.2193 24.4339 9.05264C24.3792 7.88823 24.1946 7.09352 23.9258 6.39811C23.6455 5.67864 23.2718 5.06844 22.6634 4.46042C22.055 3.85208 21.4466 3.47834 20.7266 3.19933C20.0293 2.92873 19.234 2.74433 18.0696 2.69106C16.9029 2.63802 16.5315 2.625 13.5601 2.625H13.5635ZM12.5823 4.59605C12.8735 4.59561 13.1985 4.59605 13.5635 4.59605C16.4839 4.59605 16.83 4.60655 17.9832 4.65894C19.0496 4.70772 19.6284 4.88589 20.014 5.03562C20.5244 5.23381 20.8883 5.47083 21.2709 5.85375C21.6537 6.23656 21.8906 6.60111 22.0894 7.11156C22.2391 7.49656 22.4175 8.07538 22.4661 9.14178C22.5185 10.2948 22.5298 10.6411 22.5298 13.5601C22.5298 16.4791 22.5185 16.8255 22.4661 17.9784C22.4173 19.0448 22.2391 19.6236 22.0894 20.0087C21.8912 20.5192 21.6537 20.8826 21.2709 21.2652C20.8881 21.648 20.5247 21.885 20.014 22.0833C19.6289 22.2336 19.0496 22.4114 17.9832 22.4602C16.8302 22.5125 16.4839 22.5239 13.5635 22.5239C10.643 22.5239 10.2968 22.5125 9.14386 22.4602C8.07745 22.4109 7.49864 22.2328 7.11277 22.083C6.60242 21.8847 6.23777 21.6478 5.85495 21.265C5.47214 20.8822 5.23523 20.5185 5.0365 20.0079C4.88677 19.6227 4.70837 19.0439 4.65981 17.9775C4.60742 16.8245 4.59692 16.4782 4.59692 13.5574C4.59692 10.6365 4.60742 10.2921 4.65981 9.13905C4.70859 8.07264 4.88677 7.49383 5.0365 7.10828C5.2348 6.59783 5.47214 6.23328 5.85506 5.85047C6.23798 5.46766 6.60242 5.23064 7.11287 5.03202C7.49842 4.88162 8.07745 4.70389 9.14386 4.65489C10.1528 4.60928 10.5439 4.59561 12.5823 4.59331V4.59605ZM19.4019 6.41211C18.6773 6.41211 18.0894 6.99945 18.0894 7.72417C18.0894 8.44878 18.6773 9.03667 19.4019 9.03667C20.1265 9.03667 20.7144 8.44878 20.7144 7.72417C20.7144 6.99956 20.1265 6.41167 19.4019 6.41167V6.41211ZM13.5635 7.94566C10.4616 7.94566 7.94664 10.4606 7.94664 13.5626C7.94664 16.6646 10.4616 19.1784 13.5635 19.1784C16.6655 19.1784 19.1796 16.6646 19.1796 13.5626C19.1796 10.4607 16.6653 7.94566 13.5633 7.94566H13.5635ZM13.5635 9.9167C15.577 9.9167 17.2094 11.5489 17.2094 13.5626C17.2094 15.5761 15.577 17.2085 13.5635 17.2085C11.55 17.2085 9.91769 15.5761 9.91769 13.5626C9.91769 11.5489 11.5499 9.9167 13.5635 9.9167Z" fill="white"/>
</g>
<defs>
<radialGradient id="paint0_radial_98_2657" cx="0" cy="0" r="1" gradientUnits="userSpaceOnUse" gradientTransform="translate(7.4375 30.1565) rotate(-90) scale(27.7501 25.8098)">
<stop stop-color="#FFDD55"/>
<stop offset="0.1" stop-color="#FFDD55"/>
<stop offset="0.5" stop-color="#FF543E"/>
<stop offset="1" stop-color="#C837AB"/>
</radialGradient>
<radialGradient id="paint1_radial_98_2657" cx="0" cy="0" r="1" gradientUnits="userSpaceOnUse" gradientTransform="translate(-4.69011 2.01698) rotate(78.681) scale(12.4044 51.1315)">
<stop stop-color="#3771C8"/>
<stop offset="0.128" stop-color="#3771C8"/>
<stop offset="1" stop-color="#6600FF" stop-opacity="0"/>
</radialGradient>
<clipPath id="clip0_98_2657">
<rect width="28" height="28" fill="white"/>
</clipPath>
</defs>
</svg>
