<svg width="28" height="28" viewBox="0 0 28 28" fill="none" xmlns="http://www.w3.org/2000/svg">
<g clip-path="url(#clip0_98_2664)">
<path d="M20.7502 10.082C22.793 11.3705 25.2955 12.1286 27.9984 12.1286V7.53952C27.4868 7.53969 26.9766 7.49258 26.4762 7.39894V11.0112C23.7736 11.0112 21.2713 10.2532 19.2281 8.96482V18.3299C19.2281 23.0149 14.9238 26.8125 9.61465 26.8125C7.63366 26.8125 5.79233 26.2841 4.26282 25.3777C6.00855 26.9528 8.44309 27.9298 11.1364 27.9298C16.446 27.9298 20.7504 24.1322 20.7504 19.4471V10.082H20.7502ZM22.6281 5.45217C21.584 4.44581 20.8985 3.14526 20.7502 1.70741V1.11719H19.3077C19.6708 2.94462 20.9094 4.50586 22.6281 5.45217ZM7.62086 21.7827C7.03753 21.108 6.72223 20.2824 6.72371 19.4336C6.72371 17.291 8.69245 15.5536 11.1214 15.5536C11.574 15.5534 12.0239 15.6147 12.4554 15.7354V11.0437C11.9512 10.9827 11.4424 10.9568 10.9338 10.9663V14.6181C10.5022 14.4974 10.052 14.4361 9.59923 14.4364C7.17037 14.4364 5.20174 16.1736 5.20174 18.3165C5.20174 19.8318 6.18573 21.1437 7.62086 21.7827Z" fill="#FF004F"/>
<path d="M19.2281 8.96472C21.2715 10.2531 23.7735 11.0111 26.4762 11.0111V7.39884C24.9676 7.11527 23.6321 6.41971 22.628 5.45217C20.9093 4.50577 19.6709 2.94453 19.3078 1.11719H15.5189V19.4469C15.5103 21.5837 13.5449 23.3139 11.1212 23.3139C9.69309 23.3139 8.4242 22.7133 7.62067 21.7826C6.18576 21.1437 5.20166 19.8317 5.20166 18.3166C5.20166 16.1738 7.17029 14.4365 9.59914 14.4365C10.0645 14.4365 10.513 14.5004 10.9338 14.6182V10.9664C5.71777 11.0615 1.52295 14.822 1.52295 19.447C1.52295 21.7557 2.56753 23.8486 4.26295 25.3779C5.79247 26.2841 7.63369 26.8127 9.61478 26.8127C14.9241 26.8127 19.2283 23.0148 19.2283 18.3299L19.2281 8.96472Z" fill="black"/>
<path d="M26.4762 7.39876V6.42223C25.1158 6.42398 23.7822 6.08782 22.628 5.45218C23.6497 6.43914 24.9951 7.11975 26.4762 7.39895M19.3076 1.1171C19.2731 0.942497 19.2465 0.766725 19.228 0.590221V0H13.9965V18.3299C13.9882 20.4666 12.0228 22.1968 9.59902 22.1968C8.91189 22.1977 8.23415 22.0559 7.62055 21.7828C8.42407 22.7133 9.69297 23.3139 11.1211 23.3139C13.5447 23.3139 15.5103 21.5838 15.5188 19.447V1.1172L19.3076 1.1171ZM10.934 10.9663V9.92658C10.4968 9.87389 10.0561 9.8475 9.61488 9.8476C4.30504 9.8476 0.000854492 13.6454 0.000854492 18.3299C0.000854492 21.2669 1.69245 23.8552 4.26305 25.3778C2.56762 23.8486 1.52304 21.7555 1.52304 19.4469C1.52304 14.822 5.71776 11.0614 10.934 10.9663Z" fill="#00F2EA"/>
</g>
<defs>
<clipPath id="clip0_98_2664">
<rect width="28" height="28" fill="white"/>
</clipPath>
</defs>
</svg>
